{
    "accessors": [
        {
            "bufferView": 17,
            "byteOffset": 0,
            "componentType": 5123,
            "count": 888,
            "max": [
                462
            ],
            "min": [
                0
            ],
            "name": "accessor_buffer_Mesh.015_0",
            "type": "SCALAR"
        },
        {
            "bufferView": 10,
            "byteOffset": 0,
            "componentType": 5126,
            "count": 473,
            "max": [
                0.999542236328125,
                1.0,
                1.0
            ],
            "min": [
                -1.0,
                -0.999755859375,
                -1.0
            ],
            "name": "accessor_buffer_Mesh.013_NORMAL_0",
            "type": "VEC3"
        },
        {
            "bufferView": 11,
            "byteOffset": 0,
            "componentType": 5123,
            "count": 912,
            "max": [
                472
            ],
            "min": [
                0
            ],
            "name": "accessor_buffer_Mesh.013_0",
            "type": "SCALAR"
        },
        {
            "bufferView": 15,
            "byteOffset": 0,
            "componentType": 5126,
            "count": 463,
            "max": [
                0.01377786323428154,
                0.01612255536019802,
                0.001994004240259528
            ],
            "min": [
                -0.01171533390879631,
                -0.01608886756002903,
                -0.001994004240259528
            ],
            "name": "accessor_buffer_Mesh.015_POSITION_0",
            "type": "VEC3"
        },
        {
            "bufferView": 7,
            "byteOffset": 0,
            "componentType": 5126,
            "count": 573,
            "max": [
                1.0,
                0.999969482421875,
                1.0
            ],
            "min": [
                -1.0,
                -1.0,
                -1.0
            ],
            "name": "accessor_buffer_Mesh.012_NORMAL_0",
            "type": "VEC3"
        },
        {
            "bufferView": 0,
            "byteOffset": 0,
            "componentType": 5126,
            "count": 55,
            "max": [
                0.013950969092547894,
                0.01612255536019802,
                0.001994004240259528
            ],
            "min": [
                -0.01469370722770691,
                -0.01608886756002903,
                -0.001994004240259528
            ],
            "name": "accessor_buffer_Mesh.010_POSITION_0",
            "type": "VEC3"
        },
        {
            "bufferView": 1,
            "byteOffset": 0,
            "componentType": 5126,
            "count": 55,
            "max": [
                0.7070833444595337,
                0.9475997090339661,
                1.0
            ],
            "min": [
                -0.7070833444595337,
                -0.9475386738777161,
                -1.0
            ],
            "name": "accessor_buffer_Mesh.010_NORMAL_0",
            "type": "VEC3"
        },
        {
            "bufferView": 14,
            "byteOffset": 0,
            "componentType": 5123,
            "count": 36,
            "max": [
                15
            ],
            "min": [
                0
            ],
            "name": "accessor_buffer_Mesh.014_0",
            "type": "SCALAR"
        },
        {
            "bufferView": 9,
            "byteOffset": 0,
            "componentType": 5126,
            "count": 473,
            "max": [
                0.014604829251766205,
                0.01612255349755287,
                0.001994004240259528
            ],
            "min": [
                -0.010888375341892242,
                -0.01608886942267418,
                -0.001994004240259528
            ],
            "name": "accessor_buffer_Mesh.013_POSITION_0",
            "type": "VEC3"
        },
        {
            "bufferView": 5,
            "byteOffset": 0,
            "componentType": 5123,
            "count": 108,
            "max": [
                51
            ],
            "min": [
                0
            ],
            "name": "accessor_buffer_Mesh.011_0",
            "type": "SCALAR"
        },
        {
            "bufferView": 4,
            "byteOffset": 0,
            "componentType": 5126,
            "count": 52,
            "max": [
                0.7070833444595337,
                0.9475997090339661,
                1.0
            ],
            "min": [
                -0.7070833444595337,
                -0.9473860859870911,
                -1.0
            ],
            "name": "accessor_buffer_Mesh.011_NORMAL_0",
            "type": "VEC3"
        },
        {
            "bufferView": 19,
            "byteOffset": 0,
            "componentType": 5126,
            "count": 1125,
            "max": [
                0.999908447265625,
                0.999969482421875,
                1.0
            ],
            "min": [
                -0.999969482421875,
                -0.999969482421875,
                -1.0
            ],
            "name": "accessor_buffer_Mesh.016_NORMAL_0",
            "type": "VEC3"
        },
        {
            "bufferView": 18,
            "byteOffset": 0,
            "componentType": 5126,
            "count": 1125,
            "max": [
                0.012619614601135254,
                0.01657266728579998,
                0.0019940040074288845
            ],
            "min": [
                -0.012873582541942596,
                -0.016538990661501884,
                -0.0019940040074288845
            ],
            "name": "accessor_buffer_Mesh.016_POSITION_0",
            "type": "VEC3"
        },
        {
            "bufferView": 13,
            "byteOffset": 0,
            "componentType": 5126,
            "count": 16,
            "max": [
                0.7070833444595337,
                0.7070833444595337,
                1.0
            ],
            "min": [
                -0.7070833444595337,
                -0.7070833444595337,
                -1.0
            ],
            "name": "accessor_buffer_Mesh.014_NORMAL_0",
            "type": "VEC3"
        },
        {
            "bufferView": 6,
            "byteOffset": 0,
            "componentType": 5126,
            "count": 573,
            "max": [
                0.014225967228412628,
                0.01612255536019802,
                0.001994004240259528
            ],
            "min": [
                -0.013855952769517899,
                -0.016595251858234406,
                -0.001994004240259528
            ],
            "name": "accessor_buffer_Mesh.012_POSITION_0",
            "type": "VEC3"
        },
        {
            "bufferView": 16,
            "byteOffset": 0,
            "componentType": 5126,
            "count": 463,
            "max": [
                0.999542236328125,
                1.0,
                1.0
            ],
            "min": [
                -1.0,
                -0.999755859375,
                -1.0
            ],
            "name": "accessor_buffer_Mesh.015_NORMAL_0",
            "type": "VEC3"
        },
        {
            "bufferView": 20,
            "byteOffset": 0,
            "componentType": 5123,
            "count": 2016,
            "max": [
                1124
            ],
            "min": [
                0
            ],
            "name": "accessor_buffer_Mesh.016_0",
            "type": "SCALAR"
        },
        {
            "bufferView": 8,
            "byteOffset": 0,
            "componentType": 5123,
            "count": 1032,
            "max": [
                572
            ],
            "min": [
                0
            ],
            "name": "accessor_buffer_Mesh.012_0",
            "type": "SCALAR"
        },
        {
            "bufferView": 12,
            "byteOffset": 0,
            "componentType": 5126,
            "count": 16,
            "max": [
                0.0035965703427791595,
                0.01612255536019802,
                0.001994004240259528
            ],
            "min": [
                -0.003494255244731903,
                -0.01608886756002903,
                -0.001994004240259528
            ],
            "name": "accessor_buffer_Mesh.014_POSITION_0",
            "type": "VEC3"
        },
        {
            "bufferView": 3,
            "byteOffset": 0,
            "componentType": 5126,
            "count": 52,
            "max": [
                0.014262404292821884,
                0.01612255349755287,
                0.001994004240259528
            ],
            "min": [
                -0.01435413584113121,
                -0.01608886942267418,
                -0.001994004240259528
            ],
            "name": "accessor_buffer_Mesh.011_POSITION_0",
            "type": "VEC3"
        },
        {
            "bufferView": 2,
            "byteOffset": 0,
            "componentType": 5123,
            "count": 108,
            "max": [
                54
            ],
            "min": [
                0
            ],
            "name": "accessor_buffer_Mesh.010_0",
            "type": "SCALAR"
        }
    ],
    "asset": {
        "version": "2.0"
    },
    "bufferViews": [
        {
            "buffer": 0,
            "byteLength": 660,
            "byteOffset": 0,
            "byteStride": 12,
            "name": "bufferView_buffer_Mesh.010_POSITION_0",
            "target": 34962
        },
        {
            "buffer": 0,
            "byteLength": 660,
            "byteOffset": 660,
            "byteStride": 12,
            "name": "bufferView_buffer_Mesh.010_NORMAL_0",
            "target": 34962
        },
        {
            "buffer": 0,
            "byteLength": 216,
            "byteOffset": 1320,
            "name": "bufferView_buffer_Mesh.010_0",
            "target": 34963
        },
        {
            "buffer": 0,
            "byteLength": 624,
            "byteOffset": 1536,
            "byteStride": 12,
            "name": "bufferView_buffer_Mesh.011_POSITION_0",
            "target": 34962
        },
        {
            "buffer": 0,
            "byteLength": 624,
            "byteOffset": 2160,
            "byteStride": 12,
            "name": "bufferView_buffer_Mesh.011_NORMAL_0",
            "target": 34962
        },
        {
            "buffer": 0,
            "byteLength": 216,
            "byteOffset": 2784,
            "name": "bufferView_buffer_Mesh.011_0",
            "target": 34963
        },
        {
            "buffer": 0,
            "byteLength": 6876,
            "byteOffset": 3000,
            "byteStride": 12,
            "name": "bufferView_buffer_Mesh.012_POSITION_0",
            "target": 34962
        },
        {
            "buffer": 0,
            "byteLength": 6876,
            "byteOffset": 9876,
            "byteStride": 12,
            "name": "bufferView_buffer_Mesh.012_NORMAL_0",
            "target": 34962
        },
        {
            "buffer": 0,
            "byteLength": 2064,
            "byteOffset": 16752,
            "name": "bufferView_buffer_Mesh.012_0",
            "target": 34963
        },
        {
            "buffer": 0,
            "byteLength": 5676,
            "byteOffset": 18816,
            "byteStride": 12,
            "name": "bufferView_buffer_Mesh.013_POSITION_0",
            "target": 34962
        },
        {
            "buffer": 0,
            "byteLength": 5676,
            "byteOffset": 24492,
            "byteStride": 12,
            "name": "bufferView_buffer_Mesh.013_NORMAL_0",
            "target": 34962
        },
        {
            "buffer": 0,
            "byteLength": 1824,
            "byteOffset": 30168,
            "name": "bufferView_buffer_Mesh.013_0",
            "target": 34963
        },
        {
            "buffer": 0,
            "byteLength": 192,
            "byteOffset": 31992,
            "byteStride": 12,
            "name": "bufferView_buffer_Mesh.014_POSITION_0",
            "target": 34962
        },
        {
            "buffer": 0,
            "byteLength": 192,
            "byteOffset": 32184,
            "byteStride": 12,
            "name": "bufferView_buffer_Mesh.014_NORMAL_0",
            "target": 34962
        },
        {
            "buffer": 0,
            "byteLength": 72,
            "byteOffset": 32376,
            "name": "bufferView_buffer_Mesh.014_0",
            "target": 34963
        },
        {
            "buffer": 0,
            "byteLength": 5556,
            "byteOffset": 32448,
            "byteStride": 12,
            "name": "bufferView_buffer_Mesh.015_POSITION_0",
            "target": 34962
        },
        {
            "buffer": 0,
            "byteLength": 5556,
            "byteOffset": 38004,
            "byteStride": 12,
            "name": "bufferView_buffer_Mesh.015_NORMAL_0",
            "target": 34962
        },
        {
            "buffer": 0,
            "byteLength": 1776,
            "byteOffset": 43560,
            "name": "bufferView_buffer_Mesh.015_0",
            "target": 34963
        },
        {
            "buffer": 0,
            "byteLength": 13500,
            "byteOffset": 45336,
            "byteStride": 12,
            "name": "bufferView_buffer_Mesh.016_POSITION_0",
            "target": 34962
        },
        {
            "buffer": 0,
            "byteLength": 13500,
            "byteOffset": 58836,
            "byteStride": 12,
            "name": "bufferView_buffer_Mesh.016_NORMAL_0",
            "target": 34962
        },
        {
            "buffer": 0,
            "byteLength": 4032,
            "byteOffset": 72336,
            "name": "bufferView_buffer_Mesh.016_0",
            "target": 34963
        }
    ],
    "buffers": [
        {
            "byteLength": 76368,
            "name": "buffer_spinnup-split-04",
            "uri": "data:application/octet-stream;base64,"
        }
    ],
    "materials": [
        {
            "emissiveFactor": [
                0.0,
                0.0,
                0.0
            ],
            "name": "SVGMat.004",
            "pbrMetallicRoughness": {
                "baseColorFactor": [
                    0.0,
                    0.0,
                    0.0,
                    1.0
                ],
                "metallicFactor": 0.0,
                "roughnessFactor": 1.0
            }
        },
        {
            "emissiveFactor": [
                0.0,
                0.0,
                0.0
            ],
            "name": "SVGMat.005",
            "pbrMetallicRoughness": {
                "baseColorFactor": [
                    0.0,
                    0.0,
                    0.0,
                    1.0
                ],
                "metallicFactor": 0.0,
                "roughnessFactor": 1.0
            }
        },
        {
            "emissiveFactor": [
                0.0,
                0.0,
                0.0
            ],
            "name": "SVGMat.006",
            "pbrMetallicRoughness": {
                "baseColorFactor": [
                    0.0,
                    0.0,
                    0.0,
                    1.0
                ],
                "metallicFactor": 0.0,
                "roughnessFactor": 1.0
            }
        },
        {
            "emissiveFactor": [
                0.0,
                0.0,
                0.0
            ],
            "name": "SVGMat.007",
            "pbrMetallicRoughness": {
                "baseColorFactor": [
                    0.0,
                    0.0,
                    0.0,
                    1.0
                ],
                "metallicFactor": 0.0,
                "roughnessFactor": 1.0
            }
        },
        {
            "emissiveFactor": [
                0.0,
                0.0,
                0.0
            ],
            "name": "SVGMat.008",
            "pbrMetallicRoughness": {
                "baseColorFactor": [
                    0.0,
                    0.0,
                    0.0,
                    1.0
                ],
                "metallicFactor": 0.0,
                "roughnessFactor": 1.0
            }
        },
        {
            "emissiveFactor": [
                0.0,
                0.0,
                0.0
            ],
            "name": "SVGMat.009",
            "pbrMetallicRoughness": {
                "baseColorFactor": [
                    0.0,
                    0.0,
                    0.0,
                    1.0
                ],
                "metallicFactor": 0.0,
                "roughnessFactor": 1.0
            }
        },
        {
            "emissiveFactor": [
                0.0,
                0.0,
                0.0
            ],
            "name": "SVGMat.010",
            "pbrMetallicRoughness": {
                "baseColorFactor": [
                    0.0,
                    0.0,
                    0.0,
                    1.0
                ],
                "metallicFactor": 0.0,
                "roughnessFactor": 1.0
            }
        }
    ],
    "meshes": [
        {
            "name": "Mesh.010",
            "primitives": [
                {
                    "attributes": {
                        "NORMAL": 6,
                        "POSITION": 5
                    },
                    "indices": 20,
                    "material": 0,
                    "mode": 4
                }
            ]
        },
        {
            "name": "Mesh.011",
            "primitives": [
                {
                    "attributes": {
                        "NORMAL": 10,
                        "POSITION": 19
                    },
                    "indices": 9,
                    "material": 1,
                    "mode": 4
                }
            ]
        },
        {
            "name": "Mesh.012",
            "primitives": [
                {
                    "attributes": {
                        "NORMAL": 4,
                        "POSITION": 14
                    },
                    "indices": 17,
                    "material": 2,
                    "mode": 4
                }
            ]
        },
        {
            "name": "Mesh.013",
            "primitives": [
                {
                    "attributes": {
                        "NORMAL": 1,
                        "POSITION": 8
                    },
                    "indices": 2,
                    "material": 3,
                    "mode": 4
                }
            ]
        },
        {
            "name": "Mesh.014",
            "primitives": [
                {
                    "attributes": {
                        "NORMAL": 13,
                        "POSITION": 18
                    },
                    "indices": 7,
                    "material": 4,
                    "mode": 4
                }
            ]
        },
        {
            "name": "Mesh.015",
            "primitives": [
                {
                    "attributes": {
                        "NORMAL": 15,
                        "POSITION": 3
                    },
                    "indices": 0,
                    "material": 5,
                    "mode": 4
                }
            ]
        },
        {
            "name": "Mesh.016",
            "primitives": [
                {
                    "attributes": {
                        "NORMAL": 11,
                        "POSITION": 12
                    },
                    "indices": 16,
                    "material": 6,
                    "mode": 4
                }
            ]
        }
    ],
    "nodes": [
        {
            "mesh": 1,
            "name": "Curve.007",
            "rotation": [
                0.0,
                0.0,
                0.0,
                1.0
            ],
            "scale": [
                1.0,
                1.0,
                1.0
            ],
            "translation": [
                0.01964000053703785,
                0.0,
                0.0
            ]
        },
        {
            "mesh": 2,
            "name": "Curve.008",
            "rotation": [
                0.0,
                0.0,
                0.0,
                1.0
            ],
            "scale": [
                1.0,
                1.0,
                1.0
            ],
            "translation": [
                0.05152999982237816,
                0.0,
                0.0
            ]
        },
        {
            "mesh": 0,
            "name": "Curve.009",
            "rotation": [
                0.0,
                0.0,
                0.0,
                1.0
            ],
            "scale": [
                1.0,
                1.0,
                1.0
            ],
            "translation": [
                -0.0129399998113513,
                0.0,
                0.0
            ]
        },
        {
            "mesh": 3,
            "name": "Curve.010",
            "rotation": [
                0.0,
                0.0,
                0.0,
                1.0
            ],
            "scale": [
                1.0,
                1.0,
                1.0
            ],
            "translation": [
                0.08042000234127045,
                0.0,
                0.0
            ]
        },
        {
            "mesh": 4,
            "name": "Curve.011",
            "rotation": [
                0.0,
                0.0,
                0.0,
                1.0
            ],
            "scale": [
                1.0,
                1.0,
                1.0
            ],
            "translation": [
                -0.03581999987363815,
                0.0,
                0.0
            ]
        },
        {
            "mesh": 5,
            "name": "Curve.012",
            "rotation": [
                0.0,
                0.0,
                0.0,
                1.0
            ],
            "scale": [
                1.0,
                1.0,
                1.0
            ],
            "translation": [
                -0.055229999125003815,
                0.0,
                0.0
            ]
        },
        {
            "mesh": 6,
            "name": "Curve.013",
            "rotation": [
                0.0,
                0.0,
                0.0,
                1.0
            ],
            "scale": [
                1.0,
                1.0,
                1.0
            ],
            "translation": [
                -0.08225999772548676,
                0.0,
                0.0
            ]
        },
        {
            "children": [
                2,
                0,
                1,
                3,
                4,
                5,
                6
            ],
            "matrix": [
                -1.0,
                0.0,
                0.0,
                0.0,
                0.0,
                0.0,
                1.0,
                0.0,
                0.0,
                1.0,
                0.0,
                0.0,
                0.0,
                0.0,
                0.0,
                1.0
            ],
            "name": "Scene_root"
        }
    ],
    "scene": 0,
    "scenes": [
        {
            "extras": {
                "background_color": [
                    0.05087608844041824,
                    0.05087608844041824,
                    0.05087608844041824
                ],
                "frames_per_second": 24
            },
            "name": "Scene",
            "nodes": [
                7
            ]
        }
    ]
}
